<svg width="127" height="36" viewBox="0 0 127 36" fill="none" xmlns="http://www.w3.org/2000/svg">
<path d="M5.74121 11.1162C8.00396 9.50041 10.7787 8.54601 13.7793 8.5459C21.3895 8.5459 27.5592 14.6676 27.5596 22.2188C27.5595 29.7701 21.3896 35.8926 13.7793 35.8926C6.1692 35.8923 0.000115228 29.7699 0 22.2188V1.70996H5.74121V11.1162ZM44.7842 22.2188C44.7843 26.6235 48.3832 30.195 52.8223 30.1953C57.2616 30.1953 60.8612 26.6237 60.8613 22.2188V9.68555H66.6035V22.2188C66.6034 29.7701 60.4321 35.8926 52.8223 35.8926C45.2122 35.8923 39.0431 29.7699 39.043 22.2188V9.68555H44.7842V22.2188ZM91.8662 9.11621C99.4757 9.11662 105.646 15.238 105.646 22.7891V35.3223H99.9043V22.7891C99.9042 18.3844 96.3052 14.8129 91.8662 14.8125C87.4271 14.8127 83.8273 18.3843 83.8271 22.7891V35.3223H78.085V22.7891C78.0851 15.2379 84.2565 9.11644 91.8662 9.11621ZM124.938 35.3223H119.195V9.68555H124.938V35.3223ZM13.7793 14.2432C9.34032 14.2434 5.74155 17.8142 5.74121 22.2188C5.74133 26.6235 9.34018 30.195 13.7793 30.1953C18.2186 30.1953 21.8173 26.6237 21.8174 22.2188C21.817 17.814 18.2185 14.2432 13.7793 14.2432ZM122.067 0C124.287 0.000265127 126.085 1.78599 126.085 3.98828C126.085 6.19062 124.287 7.9763 122.067 7.97656C119.848 7.97656 118.048 6.19078 118.048 3.98828C118.048 1.78583 119.848 0 122.067 0Z" fill="#8B7AD3"/>
</svg>
